<svg xmlns="http://www.w3.org/2000/svg" viewBox="0 0 64 64" fill="none">
  <defs>
    <linearGradient id="g1" x1="0%" y1="0%" x2="100%" y2="100%">
      <stop offset="0%" stop-color="#FFE08A"/>
      <stop offset="45%" stop-color="#D4A017"/>
      <stop offset="100%" stop-color="#8A6200"/>
    </linearGradient>
  </defs>
  <!-- Dorsal fin -->
  <polygon points="18,28 24,8 30,28" fill="url(#g1)"/>
  <!-- Secondary fin -->
  <polygon points="32,28 36,16 40,28" fill="url(#g1)" opacity="0.8"/>
  <!-- Head/jaw upper -->
  <path d="M2,24 L12,18 L16,22 L12,27 L2,29 Z" fill="url(#g1)"/>
  <!-- Head/jaw lower -->
  <path d="M2,29 L12,27 L9,33 L2,35 Z" fill="url(#g1)" opacity="0.7"/>
  <!-- Body -->
  <path d="M12,20 Q26,13 40,18 Q52,20 58,15 L63,10 L61,24 L63,38 L58,32 Q48,38 34,36 Q20,38 12,32 Z" fill="url(#g1)"/>
  <!-- Tail upper lobe -->
  <path d="M61,10 L64,4 L58,22 Z" fill="url(#g1)" opacity="0.9"/>
  <!-- Tail lower lobe -->
  <path d="M61,38 L64,46 L58,28 Z" fill="url(#g1)" opacity="0.85"/>
  <!-- Pectoral fin -->
  <path d="M18,30 L10,44 L24,33 Z" fill="url(#g1)" opacity="0.65"/>
  <!-- Eye -->
  <circle cx="6" cy="23" r="2" fill="#050505"/>
  <circle cx="6.8" cy="22.2" r="0.6" fill="rgba(255,220,100,0.55)"/>
</svg>
